<?xml version="1.0" encoding="UTF-8" standalone="no"?>
<!DOCTYPE svg PUBLIC "-//W3C//DTD SVG 1.1//EN" "http://www.w3.org/Graphics/SVG/1.1/DTD/svg11.dtd">
<svg width="100%" height="100%" viewBox="0 0 370 161" version="1.1" xmlns="http://www.w3.org/2000/svg" xmlns:xlink="http://www.w3.org/1999/xlink" xml:space="preserve" xmlns:serif="http://www.serif.com/" style="fill-rule:evenodd;clip-rule:evenodd;stroke-linejoin:round;stroke-miterlimit:1.41421;">
    <g transform="matrix(1,0,0,1,-1180.19,-699.872)">
        <g transform="matrix(1,0,0,1,-129.813,-230)">
            <path d="M1679.81,1090L1671.29,1090C1659.78,1090 1649.15,1083.86 1643.4,1073.9C1625.37,1042.66 1587.36,976.839 1587.36,976.839L1554.67,1033.39L1587.35,1090L1578.82,1090C1567.32,1090 1556.69,1083.86 1550.94,1073.9L1527.55,1033.39L1527.55,1033.39L1527.55,1033.39L1494.9,976.839L1462.22,1033.39L1494.9,1090L1310,1090C1310,1090 1311.89,1086.72 1314.26,1082.61C1320.02,1072.65 1330.64,1066.52 1342.15,1066.52C1378.22,1066.52 1454.23,1066.52 1454.23,1066.52L1435.1,1033.39L1435.1,1033.39L1435.1,1033.39L1398.19,969.453C1392.43,959.492 1392.43,947.219 1398.19,937.258C1400.56,933.151 1402.45,929.872 1402.45,929.872L1448.66,1009.91L1494.9,929.872L1541.11,1009.92L1587.36,929.872L1679.81,1090Z" style="fill:white;"/>
        </g>
    </g>
</svg>
